<?xml version="1.0" encoding="utf-8"?>
<!-- Generator: Adobe Illustrator 18.1.1, SVG Export Plug-In . SVG Version: 6.00 Build 0)  -->
<!DOCTYPE svg PUBLIC "-//W3C//DTD SVG 1.1//EN" "http://www.w3.org/Graphics/SVG/1.1/DTD/svg11.dtd">
<svg version="1.1" id="Capa_1" xmlns:sketch="http://www.bohemiancoding.com/sketch/ns"
	 xmlns="http://www.w3.org/2000/svg" xmlns:xlink="http://www.w3.org/1999/xlink" x="0px" y="0px" viewBox="-371 283 48 48"
	 enable-background="new -371 283 48 48" xml:space="preserve">
<title>Arrow_3</title>
<desc>Created with Sketch.</desc>
<g>
	<path stroke="#FFCF00" stroke-miterlimit="10" d="M-335.6,316.1c5,0,9.1-4.1,9.1-9.1v-11.1c0-5-4.1-9.1-9.1-9.1h-22.3
		c-5,0-9.1,4.1-9.1,9.1V307c0,5,4.1,9.1,9.1,9.1h7.2l3.9,11.7l3.6-11.9L-335.6,316.1z"/>
	<g>
		<path fill="#FBCC1E" d="M-357.3,306.5c-0.6-0.1-0.6-0.5-0.5-1c0-0.3,0-0.7,0-1c0,0,0,0,0.1-0.1c1.2,0,2.4,0,3.5,0
			c0.3,0,0.6,0,1-0.2c0.3-0.2,0.7,0,1-0.1c-1.2,0.1-2.5,0.2-3.7,0.2c-0.2,0-0.4,0-0.7,0c-0.1,0-0.2-0.1-0.2-0.2
			c0.1-0.2,0.4-0.2,0.6-0.3c1.1-0.2,2.1-0.4,3.2-0.4c0,0,0,0,0.1,0c0,0-0.1,0-0.1,0c-1,0.1-1.9,0.3-2.9,0.2c-0.2-0.1-0.5,0-0.7-0.2
			c0-0.3,0.3-0.3,0.5-0.4c1-0.4,2.1-0.7,3.1-1c0.1,0,0.2,0,0.3-0.1c-0.2,0-0.3,0.1-0.5,0.1c-0.8,0.2-1.6,0.4-2.4,0.5
			c-0.2,0-0.4,0.1-0.6,0c-0.1,0-0.1-0.1-0.2-0.1c0-0.3,0.3-0.3,0.5-0.4c0.9-0.4,1.8-0.8,2.7-1.1c-1,0.3-1.9,0.5-2.9,0.8
			c-0.2,0-0.4,0.1-0.5-0.1c-0.1-0.2,0.1-0.3,0.3-0.3c1-0.5,2-1.1,2.7-1.4c-0.7,0.3-1.7,0.5-2.7,0.9c-0.2,0.1-0.4,0.1-0.5-0.1
			c-0.1-0.2,0.1-0.3,0.3-0.4c1.1-0.6,2.1-1.3,3.2-1.9c-0.9,0.5-1.7,0.8-2.6,1.2c-0.1,0-0.2,0.1-0.4,0c-0.1,0-0.1-0.1-0.1-0.1
			c0-0.3,0.2-0.3,0.4-0.5c0.9-0.6,1.7-1.2,2.6-1.7c0,0,0,0,0,0s0,0,0,0c-0.9,0.6-1.8,1-2.8,1.5c-0.1,0.1-0.3,0.1-0.4,0.1
			c-0.1,0-0.1-0.1-0.1-0.1c0.1-0.3,0.3-0.5,0.6-0.6c0.8-0.7,1.6-1.3,2.3-1.8c-0.7,0.6-1.7,1.2-2.6,1.8c-0.3,0.2-0.5,0.5-0.8,0.4
			c-0.1,0-0.1-0.1-0.1-0.2c1.7-1.4,3.4-2.8,5.1-4.3c0.3-0.2,0.6-0.3,0.9-0.3c0.7,0.1,1.5,0,2.2-0.3c0.6-0.2,1.2-0.3,1.8-0.3
			c1.5,0,3,0,4.5,0c1.8,0.1,3,0.7,3.7,2.5c0.5,1.4,1,2.7,1.5,4.1c0.1,0.3,0.2,0.5,0.4,0.7c-0.1,0.1-0.3,0.1-0.4,0.1
			c-2-0.2-3.9-0.1-5.9-0.1c-0.6,0-1.2,0-1.8,0c-0.4,0-0.6-0.2-0.7-0.6c-0.1-0.5-0.2-0.9-0.3-1.4c-0.1-0.6,0.2-0.8,0.8-0.9
			c2-0.1,4,0,5.7,0c-1.3,0-2.8-0.1-4.4-0.1c-0.4,0-0.7,0-1.1,0c-0.4,0-0.8,0-1.1-0.3c-0.3-0.3-0.7-0.3-1.1-0.1
			c-0.3,0.1-0.5,0.3-0.8,0.2c-0.1,0-0.2-0.1-0.2-0.2c0.1-0.2,0.3-0.3,0.5-0.4c0.8-0.3,1.6-0.5,2.4-0.5c1.7-0.1,3.3,0,5,0.1
			c0.2,0.1,0.5,0.1,0.7,0.1c-0.1,0-0.2-0.1-0.3,0c-0.8-0.2-1.7-0.3-2.5-0.3c-1.1,0-2.1-0.1-3.2,0.1c-0.6,0.1-0.8,0-1-0.6
			c-0.4-0.8-0.9-1.3-1.8-1.6c1,0.3,1.4,1.1,1.7,1.9c0.1,0.3,0,0.5-0.3,0.6c-0.9,0.4-1.8,0.8-2.6,1.4c-0.3,0.2-0.4,0-0.4-0.2
			c0-0.2-0.1-0.5,0-0.7c0.1-0.8,0-1.5,0.1-2.3c0.1-0.4-0.1-0.5-0.4-0.5c-0.6,0-0.7,0-0.7,0.4c0,0.6,0.1,1.2,0.1,1.9
			c0,1.7,0.1,3.3,0.1,5c0,0.7,0.1,1.5,0.1,2.2c0,0.3,0.1,0.4,0.4,0.4c0.3,0,0.4-0.1,0.4-0.4c0-1,0.1-1.9,0-2.9c-0.1-0.6,0-1.2,0-1.7
			c0-0.3,0.2-0.6,0.4-0.8c0.9-0.5,1.8-0.9,2.7-1.2c0.1,0,0.2-0.1,0.3,0c0.1,0,0.3,0.1,0.3,0.3c0,0.2-0.1,0.2-0.2,0.2
			c-0.1,0-0.2,0.1-0.4,0.1c-0.7,0.2-0.8,0.3-0.7,1c0.1,0.5,0.1,1.1,0.1,1.6c0,0.7,0.2,0.9,0.9,1c0.8,0.1,1.5,0,2.3,0.1
			c0.6,0.1,1.3,0.3,1.8,0.6c-0.5-0.4-1.1-0.6-1.7-0.7c-0.2-0.1-0.5-0.1-0.4-0.3c0-0.2,0.3-0.2,0.5-0.2c1,0,1.9,0.2,2.8,0.6
			c0.1,0,0.2,0.1,0.2,0.1c0,0-0.1-0.1-0.2-0.1c-0.4-0.2-0.9-0.4-1.3-0.5c-0.1,0-0.3-0.1-0.3-0.3c0-0.2,0.2-0.2,0.4-0.2
			c1.5,0,3,0,4.6,0c0.3,0,0.5,0.1,0.7,0.4c0.1,0.2,0.3,0.3,0.4,0.5c0,0,0,0,0,0c0,0,0,0,0,0c-0.1-0.1-0.1-0.1-0.2-0.2
			c-0.1-0.1-0.2-0.2-0.1-0.3c0.1-0.1,0.3-0.1,0.4,0c0.3,0.1,0.5,0.3,0.8,0.4c0.1,0.1,0.3,0.2,0.5,0.1c0.3,0.2,0.5,0.4,0.6,0.7
			c0.2,0.7,0.6,1.2,1,1.7c-0.1,0.2-0.2,0.3-0.1,0.5c0.4,0.6,0.3,0.8-0.4,1c0.4,0,0.5-0.1,0.7-0.8c0,0,0.1,0,0.1,0
			c0.1,0.3,0.2,0.7,0.2,1c0,0.1,0,0.2-0.1,0.2c-0.7,0.4-1.5,0.8-2.4,0.9c-1.3,0.1-2.6,0.1-3.9,0.2c-0.5,0-1-0.1-1.5-0.3
			c-0.4-0.2-0.7-0.2-1.1-0.2c-0.5,0-1-0.1-1.5-0.2c-0.3-0.1-0.4,0-0.4,0.3c0.1,0.6,0.2,1.2,0.2,1.8c0,0.2,0.1,0.3,0.3,0.3
			c0,0,0.1,0,0.1,0c2.2,0,4.4,0.1,6.6-0.1c1.1-0.1,2.2-0.2,3.3-0.5c0.1,0,0.2,0.1,0.1,0.2c-0.8,0.8-1.6,1.4-2.9,1.4
			c-2.4,0.1-4.9,0.2-7.3,0.5c-1.5,0.2-2.7-0.3-4-0.8c0-0.1,0.1-0.1,0.2-0.2c0.1,0,0.2,0,0.3,0c0.1,0,0.1,0,0.2,0.1
			c0,0-0.1,0-0.1-0.1c-0.2-0.1-0.4,0-0.5-0.2c-0.8-0.2-1.5-0.6-2.4-0.7c-0.1,0-0.2-0.1-0.3,0c-0.8,0.1-1.4-0.3-2.2-0.4
			c0-0.2,0.1-0.1,0.2-0.1c0.1-0.1,0.1-0.1,0-0.2c0-0.2,0.1-0.2,0.2-0.2c0.1,0,0.3,0,0.3-0.2c0.1-0.6,0.1-1.2-0.2-1.8
			c-0.2,0.6,0,1.2-0.1,1.8c0,0-0.1,0-0.1,0c-1-0.4-2.1-0.5-3.1-0.4c-0.3,0-0.6,0-0.9-0.1C-357.2,306.7-357.3,306.7-357.3,306.5
			c0.1-0.1,0.1-0.5,0.4-0.5c0.1,0,0.1,0.1,0.2,0.2c0.2,0.1,0.1-0.1,0.1-0.2c0-0.2,0-0.4,0-0.5c0,0,0-0.1,0-0.1c-0.1,0-0.1,0-0.1,0.1
			c0,0.1,0,0.2-0.1,0.2c-0.2,0-0.2-0.3-0.4-0.4c-0.1,0.3-0.1,0.5,0,0.7C-357.3,306.2-357.2,306.4-357.3,306.5z"/>
		<path d="M-348.7,297.4c0.4-0.1,0.8-0.3,1.3-0.4c0.4-0.1,0.8-0.1,1,0.3c0.1,0.2,0.3,0.2,0.5,0.2c1.4-0.1,2.9,0,4.3,0
			c0.8,0,1.5,0.1,2.3,0.3c-0.3,0-0.5,0-0.8,0c-1.9,0-3.7,0-5.6,0c-0.6,0-0.8,0.2-0.7,0.8c0.1,0.5,0.2,0.9,0.3,1.4
			c0,0.3,0.2,0.3,0.4,0.3c2.2,0,4.5,0,6.7,0c0.5,0,1,0,1.5,0.2c0,0,0,0,0,0c0.2,0.1,0.5,0.2,0.6,0.4c0.2,0.2,0.4,0.3,0.6,0.4
			c0,0,0,0,0.1,0c-0.1,0.2-0.2,0.2-0.4,0.1c-0.4-0.2-0.7-0.4-1.1-0.6c0.1,0.2,0.2,0.4,0.3,0.5c0,0,0,0.1-0.1,0.1
			c-0.5-0.8-1.3-0.9-2.2-0.9c-1.2,0.1-2.5,0-3.9,0c0.7,0.3,1.3,0.4,1.8,0.8c0,0.1,0,0.1-0.1,0.1c-1.1-0.4-2.2-0.7-3.5-0.5
			c1.1,0.4,2.2,0.5,2.8,1.5c-0.8-0.5-1.7-0.8-2.6-0.9c-0.7-0.1-1.5-0.1-2.2-0.1c-0.6,0-0.8-0.2-0.9-0.8c-0.1-0.9-0.1-1.8-0.2-2.7
			c0-0.1,0-0.2,0.2-0.3c0.4-0.1,0.8-0.4,1.3-0.3c-0.1-0.2-0.2-0.3-0.4-0.3c-1.1,0.3-2,0.7-3,1.3c-0.2,0.1-0.2,0.3-0.2,0.6
			c0,1.6,0.1,3.1,0.1,4.7c0,0.4-0.1,0.5-0.4,0.5c-0.1,0-0.3,0-0.4,0c-0.2,0-0.3-0.1-0.3-0.3c0-1.3-0.1-2.6-0.1-3.8
			c-0.1-1.9-0.1-3.7-0.2-5.6c0-0.4,0.1-0.4,0.4-0.4c1,0,1,0,1,1c0,0.9-0.1,1.9-0.1,2.9c1-0.8,2-1.3,3.1-1.6c0.2-0.1,0.1-0.2,0.1-0.3
			c-0.3-1-0.9-1.8-2.1-2.1c0.7-0.1,1.4,0.2,1.9,0.8c0.2,0.2,0.4,0.5,0.5,0.7c0.4,0.7,0.4,0.7,1.2,0.6c1.9-0.1,3.7-0.2,5.6,0.3
			c0,0.2-0.2,0.1-0.3,0.1c-1.3,0-2.5-0.1-3.8-0.1c-1.5,0-2.9,0.1-4.3,0.8c0,0.1-0.1,0.1-0.2,0.2
			C-348.9,297.5-348.8,297.5-348.7,297.4z"/>
		<path d="M-334.3,308.2c-0.1,0.2-0.3,0.2-0.5,0.3c-3,0.5-6.1,0.5-9.1,0.5c-0.3,0-0.7,0.1-0.9-0.1c-0.2-0.2,0-0.5,0-0.8
			c-0.1-0.7-0.1-1.4-0.4-2.1c0.8,0.2,1.6,0.4,2.4,0.4c0.4,0,0.8,0.1,1.2,0.3c0.5,0.3,1.1,0.2,1.7,0.1c1.2-0.1,2.4-0.1,3.5-0.2
			c0.8-0.1,1.4-0.5,2-0.8c0.1,0,0.1-0.1,0.2-0.1c0,0,0,0,0.1,0.1c0.1,0.4,0.1,0.8,0,1.3c0,0.1-0.1,0.2,0,0.4c0,0,0,0.1,0,0.1
			C-334.2,307.7-334.1,308-334.3,308.2z"/>
		<path fill="#F9CB1E" d="M-336.9,301.1c-0.2-0.1-0.4-0.2-0.6-0.5c0.2,0,0.2-0.2,0.2-0.3c0-0.4,0-0.8,0-1.2c0-0.1-0.1-0.3,0.2-0.3
			c0.2,0,0.4,0,0.4,0.2c0.1,0.6,0.1,1.1,0.2,1.7c0,0.3-0.3,0.1-0.4,0.3C-336.8,301.1-336.8,301.1-336.9,301.1z"/>
		<path fill="#FACC1E" d="M-357.9,304.5c-0.3,0-0.2-0.2-0.2-0.4c0-1.6,0-3.3,0-4.9c0-0.2,0-0.4,0.2-0.4c0,0,0,0,0.1,0.1
			c0.1,0.4,0,0.8,0,1.2c0,1.4,0,2.8,0,4.2C-357.8,304.4-357.8,304.5-357.9,304.5L-357.9,304.5z"/>
		<path fill="#070501" d="M-334.3,304.6c0.1,0.4,0,0.7-0.4,0.9c-0.1,0.1-0.3,0.3-0.4,0.2c-0.2-0.1-0.2-0.3-0.1-0.5
			c0.5,0.2,0.7,0.1,0.7-0.3c0-0.1,0-0.2-0.2-0.3c-0.4-0.2-0.3-0.4,0.1-0.6c0,0.1,0,0.1,0,0.2C-334.4,304.2-334.4,304.4-334.3,304.6z
			"/>
		<path fill="#F3C61E" d="M-334,307.4c-0.1-0.1-0.1-0.2-0.1-0.3c0.1-0.5,0.1-0.9,0-1.4l0,0c0,0,0.1-0.1,0.1-0.1
			C-333.7,306.3-333.8,306.9-334,307.4z"/>
		<path fill="#CAA51B" d="M-334.3,308.2c0.1-0.2,0-0.5,0.3-0.7c0,0.3-0.1,0.6-0.2,0.9C-334.2,308.3-334.2,308.3-334.3,308.2z"/>
		<path fill="#433B1C" d="M-347.9,309.3c-0.1,0-0.2,0-0.3,0c-0.1-0.1-0.3,0-0.4-0.1c0,0,0-0.1,0-0.1c0,0,0,0,0,0
			c0.1,0,0.1-0.1,0.2-0.1C-348.2,309.2-348,309.2-347.9,309.3L-347.9,309.3z"/>
		<path fill="#D2AB1B" d="M-336.9,301.1c0,0,0.1-0.1,0.1-0.1c0.2,0.1,0.4,0.3,0.5,0.5C-336.6,301.5-336.7,301.2-336.9,301.1z"/>
		<path fill="#CBA61D" d="M-353,307.9c-0.1,0-0.1,0.1-0.2,0.1c-0.2,0-0.3-0.1-0.4-0.2C-353.4,307.7-353.2,307.8-353,307.9z"/>
		<path fill="#F5C71E" d="M-334.3,304.6c-0.1-0.2-0.2-0.3-0.3-0.5C-334.3,304.2-334.3,304.4-334.3,304.6L-334.3,304.6L-334.3,304.6z
			"/>
		<path fill="#D7B01A" d="M-357.5,298.4c0,0,0.1,0.1,0.1,0.1c0,0.3-0.2,0.4-0.5,0.3c0,0,0,0,0,0
			C-357.8,298.6-357.7,298.5-357.5,298.4z"/>
		<path fill="#AC8E1D" d="M-352.8,307.5c-0.1,0.1-0.1,0.1-0.2,0.2c-0.1,0-0.2-0.1-0.3-0.1c0.1-0.1,0.4,0,0.3-0.3c0,0,0.1,0,0.1,0
			C-352.8,307.4-352.8,307.4-352.8,307.5z"/>
		<path fill="#C19E1D" d="M-348.5,309.2C-348.5,309.2-348.5,309.3-348.5,309.2c0,0.1,0,0.1-0.1,0.2c-0.2-0.1-0.3,0-0.4-0.2
			C-348.9,309.1-348.7,309.3-348.5,309.2z"/>
		<path fill="#DCB41E" d="M-348.6,309.4c0,0,0.1-0.1,0.1-0.1c0.1,0,0.3,0,0.4,0.1c-0.1,0-0.1,0.1-0.2,0.1
			C-348.4,309.4-348.5,309.4-348.6,309.4z"/>
		<path fill="#836D1D" d="M-354.4,307.6c0.2-0.1,0.2-0.1,0.3,0c0,0,0,0,0,0.1C-354.2,307.6-354.2,307.6-354.4,307.6z"/>
		<path d="M-338.4,302c0.7,0,1.4,0.1,2.1,0.1c0.4,0,0.7,0.3,0.7,0.7c0,0.9,0.1,1.9,0.1,2.8c0,0.3-0.1,0.5-0.4,0.5
			c-1.7,0.1-3.4,0.3-5,0.3c-0.4,0-0.7-0.2-0.8-0.7c-0.2-0.8-0.3-1.7-0.4-2.5c-0.1-0.6,0.1-0.8,0.7-0.9
			C-340.5,302.1-339.4,302-338.4,302z"/>
		<path d="M-357.9,298.8c0.2,0,0.4-0.1,0.5-0.3c1.3-0.9,2.6-1.8,3.8-2.6c0,0,0.1,0.1,0.1,0.1c-1.1,0.9-2.2,1.8-3.3,2.7
			c0,0.1,0,0.1,0.1,0.1c1.1-0.6,2.2-1.1,3.3-1.7c0.1,0,0.1,0,0.1,0.1c-1.1,0.7-2.1,1.5-3.2,2.2c0,0.1,0,0.1,0.1,0.1
			c1.1-0.5,2.2-0.9,3.3-1.4c0,0,0,0.1,0.1,0.1c-1.3,0.8-2.6,1.6-3.9,2.4c0,0,0,0.1,0,0.1c1.3-0.4,2.5-0.8,3.8-1.2c0,0,0,0.1,0,0.1
			c-1.2,0.6-2.5,1.3-3.7,1.9c0,0,0,0.1,0,0.1c1.2-0.3,2.5-0.6,3.7-0.9c0,0,0,0.1,0,0.1c-1.2,0.5-2.4,1.1-3.6,1.6c0,0-0.1,0,0,0.1
			c0,0,0.1,0,0.2,0c0.9-0.1,1.8-0.3,2.6-0.4c0.2,0,0.3,0,0.5-0.1c0.1,0,0.2-0.1,0.2,0.1c-1.2,0.4-2.5,0.8-3.7,1.3c0,0,0,0,0,0
			c0,0,0,0.1,0,0.1c0.2,0,0.5,0.1,0.7,0c1.1,0,2.1-0.1,3.2-0.1c0.1,0,0.1,0,0.1,0.1c-1.3,0.2-2.7,0.5-4,0.7
			c-0.2,0.2-0.4,0.2-0.7,0.2c-0.1,0-0.2,0-0.4,0c-0.2-0.1-0.1-0.2-0.1-0.4c0-1.5,0-3,0-4.6C-358,299.2-357.9,299-357.9,298.8z"/>
		<path d="M-345.4,300.2c1.2-1,2.6-1.6,4.1-1.9c0.6-0.1,1.3-0.2,1.9-0.3c0.3,0,0.4,0.1,0.5,0.3c0.2,0.5,0.3,1,0.5,1.5
			c0.1,0.2,0.1,0.3-0.2,0.3C-340.8,300.2-343.1,300.2-345.4,300.2z"/>
		<path fill="#010100" d="M-347.1,305.3c0.1,0,0.2-0.1,0.3-0.1c-0.3,1-0.3,1.9-0.1,2.9c0,0.3-0.2,0.5-0.4,0.4c-1-0.3-2-0.5-3.1-0.8
			c0.4-0.2,0.8-0.3,1.2-0.3c-0.2-0.3-0.6-0.5-0.3-0.9c-0.4-0.2-0.2-0.6-0.3-1c-0.1-0.3,0-0.4,0.3-0.4c0.4,0,0.8,0,1.2,0
			c-0.1,0.2-0.4,0.4-0.3,0.6c0.1,0.2,0.3,0.2,0.6,0.2c0.2-0.1,0.3-0.1,0.5-0.1C-347.4,305.7-347.3,305.4-347.1,305.3z"/>
		<path fill="#010100" d="M-345.5,304.6c0.1,0.3,0.1,0.5,0.2,0.8c-1-1-1-1-1.7-1c0.3-0.4,0.7-0.3,1.1-0.3c-0.1-0.7-0.4-0.9-1.8-1.2
			c1.2-0.8,4.6-0.2,5.4,1.8c-1.1-1.1-2.3-1.7-4-1.7c0.5,0.4,0.7,0.8,0.9,1.2c0.1,0.2,0.3,0.1,0.5,0.1c1,0,1.8,0.3,2.5,1
			c0.2,0.2,0.5,0.5,0.3,0.8c-0.1,0.2-0.5,0-0.8-0.1c-0.2-0.1-0.4,0-0.6,0c-0.4,0.1-0.8,0-0.9-0.4
			C-344.6,304.9-345,304.8-345.5,304.6z"/>
		<path fill="#070501" d="M-357.9,304.3c0.1-0.1,0.2-0.1,0.3-0.1c0.3,0.1,0.6,0,1,0c1.5-0.1,2.9-0.1,4.4-0.2c0.1,0,0.2,0,0.3,0
			c0.1,0,0.2,0.1,0.2,0.2c0,0.1-0.1,0.1-0.2,0.1c-0.9-0.2-1.7,0.3-2.5,0.3c-1.1-0.1-2.2,0-3.4-0.1
			C-357.9,304.5-357.9,304.4-357.9,304.3z"/>
		<path fill="#050401" d="M-345.6,307.1c-0.1-0.4-0.1-0.8-0.7-0.6c0,0-0.2-0.3-0.2-0.3c0.1-0.2,0.1-0.5,0.5-0.4
			c0.2,0,0.3,0.1,0.4,0.3c0.5,1.1,0.6,2.3,0.2,3.4c-0.1,0.2-0.2,0.6-0.5,0.4c-0.3-0.1-0.5-0.4-0.4-0.8c0.3,0,0.6,0,0.6-0.3
			c0.1-0.4,0.2-0.7,0.1-1.1C-345.7,307.4-345.6,307.2-345.6,307.1z"/>
		<path fill="#010100" d="M-350.1,306c0,0.1,0,0.2,0,0.3c0,0.2,0.2,0.5-0.3,0.5c-0.3,0-0.7,0.1-0.7-0.5c0-0.2-0.1-0.4-0.1-0.6
			c0-0.2-0.2-0.6,0-0.7c0.3-0.2,0.6-0.1,1-0.1c0.2,0,0.1,0.1,0.1,0.2C-350.1,305.6-350.1,305.8-350.1,306z"/>
		<path fill="#131210" d="M-352.2,306.5c0-0.4,0-0.7,0.1-1c0-0.1,0.1-0.2,0.2-0.2c0.1,0,0.2,0.1,0.2,0.2c0.2,0.7,0.3,1.4,0.1,2.2
			c0,0.1-0.1,0.2-0.2,0.2c-0.1-0.1-0.2-0.1-0.2-0.2C-352.2,307.3-352.2,306.9-352.2,306.5z"/>
		<path fill="#090802" d="M-354.3,306.3c-0.3,0-0.6,0-0.9,0c-0.1,0-0.2,0-0.2-0.1c0-0.1,0.1-0.2,0.2-0.2c0.2,0,0.5,0.1,0.6-0.2
			c0,0,0.2,0,0.2,0c0.2,0.4,0.6,0.2,0.9,0.2c0.1,0,0.2,0,0.2,0.2c0,0.1-0.1,0.1-0.2,0.1C-353.7,306.3-354,306.3-354.3,306.3z"/>
		<path fill="#333027" d="M-352.8,307.5c0-0.1-0.1-0.1-0.1-0.2c-0.1-0.6-0.1-1.1-0.1-1.7c0-0.2,0.1-0.4,0.2-0.4
			c0.2,0,0.2,0.2,0.3,0.4c0.2,0.6,0.3,1.2,0.1,1.8C-352.5,307.7-352.6,307.9-352.8,307.5z"/>
		<path fill="#1B1913" d="M-357,306c-0.2,0.1,0,0.5-0.4,0.5c0,0,0,0,0,0c-0.2-0.5-0.3-1.1,0-1.6c0.3,0.2,0.2,0.5,0.4,0.7
			C-356.8,305.8-356.8,305.9-357,306z"/>
		<path fill="#0B0902" d="M-347.1,305.3c0,0.3-0.2,0.5-0.4,0.6c-0.2-0.1-0.4,0-0.6-0.1C-348.1,305.3-347.6,305-347.1,305.3z"/>
		<path fill="#1A1913" d="M-356.6,305.5c0.1,0.3,0.1,0.5,0.1,0.8c0,0.1,0,0.3-0.2,0.3c-0.2,0-0.1-0.2-0.2-0.3c-0.1-0.2,0-0.5,0-0.7
			c0-0.1,0-0.3,0.2-0.3C-356.6,305.2-356.7,305.4-356.6,305.5z"/>
		<path fill="#110E03" d="M-346,308.3c-0.5-0.1-0.4-0.4-0.3-0.7c0-0.1,0-0.5,0.4-0.2c0.2,0.1,0.2,0.3,0.2,0.6
			C-345.8,308.1-345.9,308.2-346,308.3z"/>
		<path fill="#0B0902" d="M-346.1,308.9c0-0.2-0.2-0.4,0.2-0.4c0.1,0,0.1-0.1,0.1-0.2c0-0.1,0.1-0.3,0-0.4c0-0.1,0-0.2,0.2-0.2
			c0.1,0,0.2,0.1,0.2,0.2c0,0.3-0.1,0.5-0.1,0.8C-345.7,308.9-345.8,309.2-346.1,308.9z"/>
		<path fill="#312E24" d="M-356.6,305.5c-0.1-0.1-0.1-0.2-0.2-0.2c-0.1,0-0.1,0.1-0.1,0.2c0,0.2,0,0.5,0,0.7c0-0.1-0.1-0.1-0.1-0.2
			c0-0.1,0-0.3,0-0.4c0-0.1,0-0.1,0-0.2c0-0.2,0-0.4,0.2-0.4C-356.5,305-356.6,305.3-356.6,305.5z"/>
		<path fill="#F0C41D" d="M-345.6,307.9c0-0.1-0.1-0.1-0.1-0.2c-0.1-0.2-0.1-0.3,0-0.5c0-0.1,0-0.1,0.1-0.2c0.1,0.1,0.1,0.3,0.1,0.4
			C-345.5,307.6-345.4,307.8-345.6,307.9z"/>
		<path fill="#E7BC1B" d="M-346.1,308.9c0.2,0.1,0.3,0,0.4-0.2c0,0,0,0,0.1,0c-0.1,0.5-0.2,0.5-0.7,0.3
			C-346.3,309-346.2,309-346.1,308.9z"/>
		<path fill="#77610F" d="M-345.7,307.2c0,0.2,0,0.3,0,0.5c-0.1,0-0.1,0.1-0.1,0.2c0,0,0,0-0.1,0c0-0.2,0-0.4-0.1-0.6
			C-345.9,307.2-345.8,307.2-345.7,307.2z"/>
		<path fill="#E2B81B" d="M-356.6,304.3c-0.3,0.1-0.6,0.2-1,0c0.2,0,0.5-0.1,0.7-0.1C-356.8,304.2-356.7,304.2-356.6,304.3z"/>
		<path fill="#B08F15" d="M-356.1,303.5c-0.3,0.1-0.6,0.1-1.1,0.1c0.2-0.1,0.3-0.1,0.4-0.2C-356.5,303.6-356.3,303.4-356.1,303.5z"
			/>
		<path fill="#63541C" d="M-347.9,309.3C-347.9,309.3-347.9,309.4-347.9,309.3c0.2-0.1,0.4,0.1,0.6,0.2
			C-347.5,309.5-347.7,309.6-347.9,309.3z"/>
		<path fill="#EBBF1C" d="M-348.7,297.4c-0.2,0.1-0.4,0.2-0.6,0.3c0.1-0.3,0.3-0.3,0.5-0.4C-348.8,297.4-348.7,297.4-348.7,297.4z"
			/>
		<path fill="#342B08" d="M-340.8,296.6c0.1,0,0.2-0.1,0.3-0.1c0.1,0,0.3,0.1,0.4,0.1C-340.3,296.7-340.5,296.7-340.8,296.6z"/>
		<path fill="#E3B91E" d="M-346.8,307.7c0,0.1,0,0.3,0,0.5C-346.9,308-346.8,307.9-346.8,307.7z"/>
		<path fill="#E6BB1B" d="M-356.4,302.6c-0.1,0.1-0.3,0.1-0.5,0.1c0.1-0.1,0.2-0.2,0.3-0.2C-356.4,302.5-356.4,302.5-356.4,302.6z"
			/>
		<path fill="#302807" d="M-353,302.2c-0.1,0-0.1-0.1-0.2-0.1c0.2-0.1,0.3-0.1,0.6-0.1C-352.8,302.1-352.9,302.1-353,302.2z"/>
		<path fill="#B39215" d="M-348.1,305.8c0.2,0.1,0.4-0.1,0.6,0.1C-347.7,305.9-347.9,305.9-348.1,305.8
			C-348.1,305.9-348.1,305.9-348.1,305.8z"/>
		<path fill="#1F1A05" d="M-342,301.6c0,0,0.1-0.1,0.1-0.1c0.1,0,0.2,0.1,0.3,0.2C-341.8,301.8-341.9,301.7-342,301.6z"/>
		<path fill="#D4AD19" d="M-356.4,299.5c-0.1,0.1-0.2,0.1-0.3,0.2c0-0.2,0.1-0.2,0.2-0.2C-356.4,299.4-356.4,299.5-356.4,299.5z"/>
		<path fill="#63520E" d="M-345.9,307.9C-345.9,307.9-345.8,307.9-345.9,307.9c0.1,0.1,0.1,0.3,0,0.4c0,0-0.1,0-0.1,0
			C-346,308.1-345.9,308-345.9,307.9z"/>
		<path fill="#3E3309" d="M-337.6,301.6c0,0,0-0.1,0.1-0.1c0.1,0.1,0.2,0.2,0.2,0.3C-337.5,301.8-337.5,301.7-337.6,301.6z"/>
		<path fill="#B59316" d="M-356.7,298.8c-0.1,0.1-0.2,0.2-0.3,0.1C-357,298.8-356.8,298.8-356.7,298.8
			C-356.7,298.8-356.7,298.8-356.7,298.8z"/>
		<path fill="#312907" d="M-353.3,297.2C-353.3,297.2-353.4,297.2-353.3,297.2c0-0.2,0.1-0.3,0.2-0.2
			C-353,297.1-353.2,297.2-353.3,297.2z"/>
		<path fill="#756010" d="M-352.8,303.5C-352.9,303.5-352.9,303.4-352.8,303.5c0-0.2,0.1-0.2,0.2-0.1
			C-352.6,303.5-352.8,303.5-352.8,303.5z"/>
		<path fill="#FACB1E" d="M-346.9,300.1c0,0,0,0.1,0,0.1c0,0.2,0.2,0.6-0.3,0.6c-0.6,0.1-0.8,0-0.8-0.6c0-0.6-0.1-1.1-0.1-1.7
			c0-0.5,0.4-0.4,0.6-0.4c0.2-0.1,0.4,0.1,0.4,0.3C-347,299.1-347,299.6-346.9,300.1C-346.9,300.1-346.9,300.1-346.9,300.1z"/>
		<path fill="#1D1D1B" d="M-334.1,305.8c0.2,0.5,0.1,0.9,0,1.4C-334.1,306.7-334.1,306.2-334.1,305.8z"/>
		<path fill="#030303" d="M-338.9,302.5c0.8,0,1.6,0,2.4,0c0,0,0,0,0,0C-337.3,302.5-338.1,302.5-338.9,302.5
			C-338.9,302.5-338.9,302.5-338.9,302.5z"/>
		<path fill="#D9B01A" d="M-348,306.6c0.2,0,0.4,0.1,0.7,0.1c0,0,0,0.1,0,0.1c-0.3,0-0.5,0-0.8-0.1
			C-348.1,306.6-348,306.6-348,306.6z"/>
		<path fill="#D0A919" d="M-349.1,306.5c0.2,0,0.5,0,0.7,0.1c0,0,0,0,0,0.1c0,0,0,0,0,0C-348.6,306.6-348.9,306.6-349.1,306.5
			C-349.1,306.6-349.1,306.5-349.1,306.5C-349.1,306.5-349.1,306.5-349.1,306.5z"/>
		<path fill="#A28414" d="M-347.3,307.7c-0.3,0.2-0.4,0-0.6,0C-347.6,307.6-347.5,307.8-347.3,307.7z"/>
		<path fill="#957913" d="M-349.1,306.5C-349.1,306.5-349.1,306.5-349.1,306.5c-0.1,0.1-0.2,0-0.4,0
			C-349.3,306.3-349.2,306.4-349.1,306.5z"/>
		<path fill="#ECC01C" d="M-348.4,306.7C-348.4,306.6-348.4,306.6-348.4,306.7c0.2-0.1,0.3-0.1,0.5-0.1c0,0-0.1,0.1-0.1,0.1
			C-348.2,306.7-348.3,306.7-348.4,306.7z"/>
		<path fill="#F5C81D" d="M-343.7,304.9c0.2,0,0.4,0.2,0.4,0.5c0,0.3-0.2,0.5-0.5,0.4c-0.3,0-0.4-0.2-0.4-0.5
			C-344.2,305-344,304.9-343.7,304.9z"/>
		<path fill="#DEB51B" d="M-345.6,308.7L-345.6,308.7L-345.6,308.7c-0.1-0.3-0.1-0.6,0-0.8c0.1-0.1,0.1-0.3,0.1-0.4
			C-345.4,307.9-345.4,308.3-345.6,308.7z"/>
		<path fill="#0F0E0C" d="M-352.6,307.5c-0.4-0.6-0.3-1.2-0.2-1.7c0-0.1,0-0.2,0.2-0.2c0.1,0,0.1,0.1,0.1,0.2
			C-352.5,306.3-352.4,306.8-352.6,307.5z"/>
	</g>
</g>
</svg>
